{
    "asset" : {
        "generator" : "Khronos glTF Blender I/O v3.3.32",
        "version" : "2.0"
    },
    "scene" : 0,
    "scenes" : [
        {
            "name" : "Scene",
            "nodes" : [
                9,
                10
            ]
        }
    ],
    "nodes" : [
        {
            "name" : "Root",
            "rotation" : [
                -2.980232594040899e-08,
                1.1920927533992653e-07,
                0,
                1
            ],
            "scale" : [
                1,
                0.9999999403953552,
                0.9999999403953552
            ]
        },
        {
            "name" : "Flowers_02",
            "rotation" : [
                0.1266220360994339,
                0.4553399384021759,
                0.45533987879753113,
                0.7545185685157776
            ],
            "scale" : [
                1,
                1,
                0.9999999403953552
            ]
        },
        {
            "name" : "Flowers_03",
            "rotation" : [
                -0.06897512078285217,
                -0.452006995677948,
                -0.45200711488723755,
                0.7659122943878174
            ]
        },
        {
            "name" : "Flowers_01",
            "rotation" : [
                -0.45248594880104065,
                0.09250848740339279,
                0.09250833094120026,
                0.8821229338645935
            ],
            "scale" : [
                0.9999999403953552,
                1,
                1
            ]
        },
        {
            "name" : "Flowers_04",
            "rotation" : [
                0,
                1.1920928955078125e-07,
                0,
                1
            ]
        },
        {
            "mesh" : 0,
            "name" : "Flora_Nasturtium_Geo",
            "skin" : 0
        },
        {
            "mesh" : 1,
            "name" : "Flora_Nasturtium_Geo.001",
            "skin" : 0
        },
        {
            "mesh" : 2,
            "name" : "Flora_Nasturtium_Geo.002",
            "skin" : 0
        },
        {
            "mesh" : 3,
            "name" : "Flora_Nasturtium_Geo.003",
            "skin" : 0
        },
        {
            "children" : [
                5,
                6,
                7,
                8,
                0,
                1,
                2,
                3,
                4
            ],
            "name" : "Flora_Nasturtium"
        },
        {
            "mesh" : 4,
            "name" : "Flora_Nasturtium_Seed"
        }
    ],
    "materials" : [
        {
            "alphaCutoff" : 0.5,
            "alphaMode" : "MASK",
            "name" : "SkinnedPlant_Flora_Nasturtium_C",
            "normalTexture" : {
                "index" : 0
            },
            "pbrMetallicRoughness" : {
                "baseColorTexture" : {
                    "index" : 1
                },
                "metallicRoughnessTexture" : {
                    "index" : 2
                }
            }
        },
        {
            "alphaCutoff" : 0.5,
            "alphaMode" : "MASK",
            "name" : "SkinnedPlant_Flora_Nasturtium_A",
            "normalTexture" : {
                "index" : 3
            },
            "occlusionTexture" : {
                "index" : 4
            },
            "pbrMetallicRoughness" : {
                "baseColorTexture" : {
                    "index" : 5
                },
                "metallicRoughnessTexture" : {
                    "index" : 4
                }
            }
        }
    ],
    "meshes" : [
        {
            "name" : "high_0.004",
            "primitives" : [
                {
                    "attributes" : {
                        "POSITION" : 0,
                        "NORMAL" : 1,
                        "TEXCOORD_0" : 2,
                        "TEXCOORD_1" : 3,
                        "JOINTS_0" : 4,
                        "WEIGHTS_0" : 5
                    },
                    "indices" : 6,
                    "material" : 0
                }
            ]
        },
        {
            "name" : "high_0.001",
            "primitives" : [
                {
                    "attributes" : {
                        "POSITION" : 8,
                        "NORMAL" : 9,
                        "TEXCOORD_0" : 10,
                        "TEXCOORD_1" : 11,
                        "JOINTS_0" : 12,
                        "WEIGHTS_0" : 13
                    },
                    "indices" : 6,
                    "material" : 0
                }
            ]
        },
        {
            "name" : "high_0.002",
            "primitives" : [
                {
                    "attributes" : {
                        "POSITION" : 14,
                        "NORMAL" : 15,
                        "TEXCOORD_0" : 16,
                        "TEXCOORD_1" : 17,
                        "JOINTS_0" : 18,
                        "WEIGHTS_0" : 19
                    },
                    "indices" : 6,
                    "material" : 0
                }
            ]
        },
        {
            "name" : "high_0.003",
            "primitives" : [
                {
                    "attributes" : {
                        "POSITION" : 20,
                        "NORMAL" : 21,
                        "TEXCOORD_0" : 22,
                        "TEXCOORD_1" : 23,
                        "JOINTS_0" : 24,
                        "WEIGHTS_0" : 25
                    },
                    "indices" : 6,
                    "material" : 0
                }
            ]
        },
        {
            "name" : "Flora_Nasturtium_Seed",
            "primitives" : [
                {
                    "attributes" : {
                        "POSITION" : 26,
                        "NORMAL" : 27,
                        "TEXCOORD_0" : 28
                    },
                    "indices" : 29,
                    "material" : 1
                }
            ]
        }
    ],
    "textures" : [
        {
            "sampler" : 0,
            "source" : 0
        },
        {
            "sampler" : 0,
            "source" : 1
        },
        {
            "sampler" : 0,
            "source" : 2
        },
        {
            "sampler" : 0,
            "source" : 0
        },
        {
            "sampler" : 0,
            "source" : 2
        },
        {
            "sampler" : 0,
            "source" : 3
        }
    ],
    "images" : [
        {
            "mimeType" : "image/png",
            "name" : "Flora_Nasturtium_NormalMap",
            "uri" : "Flora_Nasturtium_NormalMap.png"
        },
        {
            "mimeType" : "image/png",
            "name" : "Flora_Nasturtium_C_BaseColor",
            "uri" : "Flora_Nasturtium_C_BaseColor.png"
        },
        {
            "mimeType" : "image/png",
            "name" : "Flora_Nasturtium_occlusionRoughnessMetallic",
            "uri" : "Flora_Nasturtium_occlusionRoughnessMetallic.png"
        },
        {
            "mimeType" : "image/png",
            "name" : "Flora_Nasturtium_A_BaseColor",
            "uri" : "Flora_Nasturtium_A_BaseColor.png"
        }
    ],
    "skins" : [
        {
            "inverseBindMatrices" : 7,
            "joints" : [
                0,
                1,
                2,
                3,
                4
            ],
            "name" : "Flora_Nasturtium"
        }
    ],
    "accessors" : [
        {
            "bufferView" : 0,
            "componentType" : 5126,
            "count" : 3412,
            "max" : [
                0.1406715363264084,
                0.16500353813171387,
                0.1604813039302826
            ],
            "min" : [
                -0.14271964132785797,
                0,
                -0.1442679911851883
            ],
            "type" : "VEC3"
        },
        {
            "bufferView" : 1,
            "componentType" : 5126,
            "count" : 3412,
            "type" : "VEC3"
        },
        {
            "bufferView" : 2,
            "componentType" : 5126,
            "count" : 3412,
            "type" : "VEC2"
        },
        {
            "bufferView" : 3,
            "componentType" : 5126,
            "count" : 3412,
            "type" : "VEC2"
        },
        {
            "bufferView" : 4,
            "componentType" : 5121,
            "count" : 3412,
            "type" : "VEC4"
        },
        {
            "bufferView" : 5,
            "componentType" : 5126,
            "count" : 3412,
            "type" : "VEC4"
        },
        {
            "bufferView" : 6,
            "componentType" : 5123,
            "count" : 11070,
            "type" : "SCALAR"
        },
        {
            "bufferView" : 7,
            "componentType" : 5126,
            "count" : 5,
            "type" : "MAT4"
        },
        {
            "bufferView" : 8,
            "componentType" : 5126,
            "count" : 3412,
            "max" : [
                0.2119436264038086,
                0.16387200355529785,
                -0.12378230690956116
            ],
            "min" : [
                -0.07144755870103836,
                -0.0011315271258354187,
                -0.42853158712387085
            ],
            "type" : "VEC3"
        },
        {
            "bufferView" : 9,
            "componentType" : 5126,
            "count" : 3412,
            "type" : "VEC3"
        },
        {
            "bufferView" : 10,
            "componentType" : 5126,
            "count" : 3412,
            "type" : "VEC2"
        },
        {
            "bufferView" : 11,
            "componentType" : 5126,
            "count" : 3412,
            "type" : "VEC2"
        },
        {
            "bufferView" : 12,
            "componentType" : 5121,
            "count" : 3412,
            "type" : "VEC4"
        },
        {
            "bufferView" : 13,
            "componentType" : 5126,
            "count" : 3412,
            "type" : "VEC4"
        },
        {
            "bufferView" : 14,
            "componentType" : 5126,
            "count" : 3412,
            "max" : [
                0.29485785961151123,
                0.13012409210205078,
                -0.40884438157081604
            ],
            "min" : [
                0.011466696858406067,
                -0.03487943857908249,
                -0.7135936617851257
            ],
            "type" : "VEC3"
        },
        {
            "bufferView" : 15,
            "componentType" : 5126,
            "count" : 3412,
            "type" : "VEC3"
        },
        {
            "bufferView" : 16,
            "componentType" : 5126,
            "count" : 3412,
            "type" : "VEC2"
        },
        {
            "bufferView" : 17,
            "componentType" : 5126,
            "count" : 3412,
            "type" : "VEC2"
        },
        {
            "bufferView" : 18,
            "componentType" : 5121,
            "count" : 3412,
            "type" : "VEC4"
        },
        {
            "bufferView" : 19,
            "componentType" : 5126,
            "count" : 3412,
            "type" : "VEC4"
        },
        {
            "bufferView" : 20,
            "componentType" : 5126,
            "count" : 3412,
            "max" : [
                0.07308956980705261,
                0.14614030718803406,
                0.4580836594104767
            ],
            "min" : [
                -0.21030160784721375,
                -0.018863223493099213,
                0.1533343642950058
            ],
            "type" : "VEC3"
        },
        {
            "bufferView" : 21,
            "componentType" : 5126,
            "count" : 3412,
            "type" : "VEC3"
        },
        {
            "bufferView" : 22,
            "componentType" : 5126,
            "count" : 3412,
            "type" : "VEC2"
        },
        {
            "bufferView" : 23,
            "componentType" : 5126,
            "count" : 3412,
            "type" : "VEC2"
        },
        {
            "bufferView" : 24,
            "componentType" : 5121,
            "count" : 3412,
            "type" : "VEC4"
        },
        {
            "bufferView" : 25,
            "componentType" : 5126,
            "count" : 3412,
            "type" : "VEC4"
        },
        {
            "bufferView" : 26,
            "componentType" : 5126,
            "count" : 135,
            "max" : [
                0.00864904560148716,
                0.009700356982648373,
                0.007108526304364204
            ],
            "min" : [
                -0.004768688231706619,
                -0.004917970858514309,
                -0.007109743542969227
            ],
            "type" : "VEC3"
        },
        {
            "bufferView" : 27,
            "componentType" : 5126,
            "count" : 135,
            "type" : "VEC3"
        },
        {
            "bufferView" : 28,
            "componentType" : 5126,
            "count" : 135,
            "type" : "VEC2"
        },
        {
            "bufferView" : 29,
            "componentType" : 5123,
            "count" : 648,
            "type" : "SCALAR"
        }
    ],
    "bufferViews" : [
        {
            "buffer" : 0,
            "byteLength" : 40944,
            "byteOffset" : 0,
            "target" : 34962
        },
        {
            "buffer" : 0,
            "byteLength" : 40944,
            "byteOffset" : 40944,
            "target" : 34962
        },
        {
            "buffer" : 0,
            "byteLength" : 27296,
            "byteOffset" : 81888,
            "target" : 34962
        },
        {
            "buffer" : 0,
            "byteLength" : 27296,
            "byteOffset" : 109184,
            "target" : 34962
        },
        {
            "buffer" : 0,
            "byteLength" : 13648,
            "byteOffset" : 136480,
            "target" : 34962
        },
        {
            "buffer" : 0,
            "byteLength" : 54592,
            "byteOffset" : 150128,
            "target" : 34962
        },
        {
            "buffer" : 0,
            "byteLength" : 22140,
            "byteOffset" : 204720,
            "target" : 34963
        },
        {
            "buffer" : 0,
            "byteLength" : 320,
            "byteOffset" : 226860
        },
        {
            "buffer" : 0,
            "byteLength" : 40944,
            "byteOffset" : 227180,
            "target" : 34962
        },
        {
            "buffer" : 0,
            "byteLength" : 40944,
            "byteOffset" : 268124,
            "target" : 34962
        },
        {
            "buffer" : 0,
            "byteLength" : 27296,
            "byteOffset" : 309068,
            "target" : 34962
        },
        {
            "buffer" : 0,
            "byteLength" : 27296,
            "byteOffset" : 336364,
            "target" : 34962
        },
        {
            "buffer" : 0,
            "byteLength" : 13648,
            "byteOffset" : 363660,
            "target" : 34962
        },
        {
            "buffer" : 0,
            "byteLength" : 54592,
            "byteOffset" : 377308,
            "target" : 34962
        },
        {
            "buffer" : 0,
            "byteLength" : 40944,
            "byteOffset" : 431900,
            "target" : 34962
        },
        {
            "buffer" : 0,
            "byteLength" : 40944,
            "byteOffset" : 472844,
            "target" : 34962
        },
        {
            "buffer" : 0,
            "byteLength" : 27296,
            "byteOffset" : 513788,
            "target" : 34962
        },
        {
            "buffer" : 0,
            "byteLength" : 27296,
            "byteOffset" : 541084,
            "target" : 34962
        },
        {
            "buffer" : 0,
            "byteLength" : 13648,
            "byteOffset" : 568380,
            "target" : 34962
        },
        {
            "buffer" : 0,
            "byteLength" : 54592,
            "byteOffset" : 582028,
            "target" : 34962
        },
        {
            "buffer" : 0,
            "byteLength" : 40944,
            "byteOffset" : 636620,
            "target" : 34962
        },
        {
            "buffer" : 0,
            "byteLength" : 40944,
            "byteOffset" : 677564,
            "target" : 34962
        },
        {
            "buffer" : 0,
            "byteLength" : 27296,
            "byteOffset" : 718508,
            "target" : 34962
        },
        {
            "buffer" : 0,
            "byteLength" : 27296,
            "byteOffset" : 745804,
            "target" : 34962
        },
        {
            "buffer" : 0,
            "byteLength" : 13648,
            "byteOffset" : 773100,
            "target" : 34962
        },
        {
            "buffer" : 0,
            "byteLength" : 54592,
            "byteOffset" : 786748,
            "target" : 34962
        },
        {
            "buffer" : 0,
            "byteLength" : 1620,
            "byteOffset" : 841340,
            "target" : 34962
        },
        {
            "buffer" : 0,
            "byteLength" : 1620,
            "byteOffset" : 842960,
            "target" : 34962
        },
        {
            "buffer" : 0,
            "byteLength" : 1080,
            "byteOffset" : 844580,
            "target" : 34962
        },
        {
            "buffer" : 0,
            "byteLength" : 1296,
            "byteOffset" : 845660,
            "target" : 34963
        }
    ],
    "samplers" : [
        {
            "magFilter" : 9729,
            "minFilter" : 9987
        }
    ],
    "buffers" : [
        {
            "byteLength" : 846956,
            "uri" : "Arbustos.bin"
        }
    ]
}
