{
    "asset" : {
        "generator" : "Khronos glTF Blender I/O v3.3.32",
        "version" : "2.0"
    },
    "scene" : 0,
    "scenes" : [
        {
            "name" : "Scene",
            "nodes" : [
                0
            ]
        }
    ],
    "nodes" : [
        {
            "mesh" : 0,
            "name" : "Flora_Rose_Geo"
        }
    ],
    "materials" : [
        {
            "name" : "SkinnedPlant_Flora_Rose_D",
            "normalTexture" : {
                "index" : 0
            },
            "pbrMetallicRoughness" : {
                "baseColorTexture" : {
                    "index" : 1
                },
                "metallicRoughnessTexture" : {
                    "index" : 2
                }
            }
        }
    ],
    "meshes" : [
        {
            "name" : "Cube.007",
            "primitives" : [
                {
                    "attributes" : {
                        "POSITION" : 0,
                        "NORMAL" : 1,
                        "TEXCOORD_0" : 2
                    },
                    "indices" : 3,
                    "material" : 0
                }
            ]
        }
    ],
    "textures" : [
        {
            "sampler" : 0,
            "source" : 0
        },
        {
            "sampler" : 0,
            "source" : 1
        },
        {
            "sampler" : 0,
            "source" : 2
        }
    ],
    "images" : [
        {
            "mimeType" : "image/png",
            "name" : "Flora_Rose_NormalMap",
            "uri" : "Flora_Rose_NormalMap.png"
        },
        {
            "mimeType" : "image/png",
            "name" : "Flora_Rose_D_BaseColor",
            "uri" : "Flora_Rose_D_BaseColor.png"
        },
        {
            "mimeType" : "image/png",
            "name" : "Flora_Rose_occlusionRoughnessMetallic",
            "uri" : "Flora_Rose_occlusionRoughnessMetallic.png"
        }
    ],
    "accessors" : [
        {
            "bufferView" : 0,
            "componentType" : 5126,
            "count" : 5963,
            "max" : [
                0.4482734203338623,
                0.6460155844688416,
                0.4074898064136505
            ],
            "min" : [
                -0.38781875371932983,
                -0.010186120867729187,
                -0.46660467982292175
            ],
            "type" : "VEC3"
        },
        {
            "bufferView" : 1,
            "componentType" : 5126,
            "count" : 5963,
            "type" : "VEC3"
        },
        {
            "bufferView" : 2,
            "componentType" : 5126,
            "count" : 5963,
            "type" : "VEC2"
        },
        {
            "bufferView" : 3,
            "componentType" : 5123,
            "count" : 14265,
            "type" : "SCALAR"
        }
    ],
    "bufferViews" : [
        {
            "buffer" : 0,
            "byteLength" : 71556,
            "byteOffset" : 0,
            "target" : 34962
        },
        {
            "buffer" : 0,
            "byteLength" : 71556,
            "byteOffset" : 71556,
            "target" : 34962
        },
        {
            "buffer" : 0,
            "byteLength" : 47704,
            "byteOffset" : 143112,
            "target" : 34962
        },
        {
            "buffer" : 0,
            "byteLength" : 28530,
            "byteOffset" : 190816,
            "target" : 34963
        }
    ],
    "samplers" : [
        {
            "magFilter" : 9729,
            "minFilter" : 9987
        }
    ],
    "buffers" : [
        {
            "byteLength" : 219348,
            "uri" : "Flora_Rose.bin"
        }
    ]
}
